<svg width="32" height="48" viewBox="0 0 32 48" fill="none" xmlns="http://www.w3.org/2000/svg">
<path fill-rule="evenodd" clip-rule="evenodd" d="M23.3958 23.6529C23.3524 23.9311 23.2466 24.1959 23.0863 24.4275C22.926 24.659 22.7154 24.8512 22.4703 24.9898C21.9766 25.3086 21.5447 25.468 21.1077 25.6274C20.177 25.9488 19.1974 26.2702 18.1613 26.643C17.0687 27.0157 16.0891 27.3885 15.215 27.6585C14.1249 28.0313 13.0888 28.3526 12.1041 28.7254C11.3633 29.0425 10.6674 29.4556 10.0345 29.9544C9.4458 30.4877 8.9321 31.0983 8.5073 31.7695C8.0703 32.515 7.7952 33.4766 7.7952 34.5975C7.7952 36.842 8.3402 38.5491 9.4329 39.6161C10.523 40.7396 12.5438 41.2718 15.5389 41.2718C18.5933 41.2718 20.6655 40.6856 21.7607 39.5107C22.8482 38.3357 23.3932 36.6826 23.3932 34.5487V23.6529H23.3958ZM15.5415 0C20.8891 0 24.815 1.01553 27.3217 3.09802C29.831 5.12908 31.0856 7.74119 31.0856 10.8366V37.2148C31.0856 38.2817 30.8696 39.4567 30.4891 40.737C30.1035 42.0225 29.3425 43.1949 28.1418 44.2592C26.9977 45.3313 25.4166 46.2389 23.3984 46.933C21.3802 47.6272 18.7629 48 15.5441 48C12.3304 48 9.708 47.6272 7.6923 46.933C5.6767 46.2389 4.093 45.3313 2.9489 44.2592C1.8846 43.3001 1.0783 42.089 0.604198 40.737C0.218498 39.4592 0 38.2843 0 37.2174V33.001C0 30.7565 0.599002 28.674 1.7997 26.8563C3.0003 24.9898 4.6894 23.7095 6.8722 22.9073C7.9623 22.5345 9.2169 22.1618 10.6335 21.681C12.0527 21.1976 13.3588 20.7169 14.6699 20.2927C15.9811 19.8633 17.1252 19.434 18.1048 19.0586C18.6959 18.8221 19.2963 18.6094 19.9044 18.421L20.8866 17.9402C21.2722 17.7268 21.6501 17.4055 22.0332 16.9787C22.4137 16.5545 22.7402 16.0737 23.0153 15.5389C23.306 14.9599 23.4557 14.3203 23.4524 13.6724V11.9627C23.4564 11.3361 23.3249 10.716 23.0667 10.145C22.8508 9.5023 22.4137 8.91612 21.8147 8.38393C21.2156 7.84917 20.3955 7.42239 19.416 7.09845C18.4338 6.78222 17.1278 6.62025 15.6521 6.62025C12.5977 6.62025 10.5795 7.21157 9.4894 8.43535C8.5639 9.50488 8.0189 10.8392 7.9109 12.3329C7.9109 12.6543 7.6383 12.8677 7.3093 12.8677L0.658199 12.9757C0.500199 12.9764 0.3483 12.9146 0.2356 12.8039C0.123 12.6931 0.0585987 12.5423 0.0565987 12.3844V10.8418C0.0565987 9.3429 0.331698 7.95458 0.930698 6.62025C1.5323 5.28334 2.4604 4.16497 3.7125 3.20086C4.9671 2.24189 6.6048 1.44231 8.5665 0.907552C10.4767 0.26481 12.8214 0 15.5466 0H15.5415Z" fill="#0A3871"/>
</svg>
